<svg width="25" height="25" viewBox="0 0 25 25" fill="none" xmlns="http://www.w3.org/2000/svg">
<path d="M12.5 2.51123C9.0475 2.51123 6.25 5.29748 6.25 8.74873C6.25 14.7162 12.5 22.4987 12.5 22.4987C12.5 22.4987 18.75 14.715 18.75 8.74873C18.75 5.29873 15.9525 2.51123 12.5 2.51123ZM12.5 12.2C11.6049 12.2 10.7464 11.8444 10.1135 11.2115C9.48058 10.5785 9.125 9.72009 9.125 8.82498C9.125 7.92987 9.48058 7.07143 10.1135 6.43849C10.7464 5.80556 11.6049 5.44998 12.5 5.44998C13.3951 5.44998 14.2536 5.80556 14.8865 6.43849C15.5194 7.07143 15.875 7.92987 15.875 8.82498C15.875 9.72009 15.5194 10.5785 14.8865 11.2115C14.2536 11.8444 13.3951 12.2 12.5 12.2Z" fill="black"/>
</svg>
