<svg width="20" height="20" viewBox="0 0 20 20" fill="none" xmlns="http://www.w3.org/2000/svg">
<g clip-path="url(#clip0)">
<path d="M19.5512 15.8059L16.4626 12.7168C15.8474 12.1041 14.8286 12.1227 14.1919 12.7596L12.6358 14.3153C12.5375 14.2612 12.4358 14.2046 12.3288 14.1445C11.3461 13.6 10.0012 12.8538 8.58592 11.4375C7.16646 10.0182 6.4195 8.67118 5.87335 7.6879C5.81572 7.58372 5.76051 7.48329 5.70598 7.38791L6.75034 6.34509L7.26379 5.83101C7.90141 5.19322 7.91899 4.17471 7.30522 3.56019L4.21654 0.470814C3.60276 -0.142844 2.58351 -0.124227 1.94589 0.513563L1.07539 1.38906L1.09918 1.41267C0.807291 1.78512 0.56338 2.21468 0.381868 2.67791C0.214549 3.11885 0.110376 3.53962 0.0627433 3.96125C-0.345098 7.34234 1.19996 10.4324 5.39306 14.6256C11.1892 20.4213 15.8601 19.9835 16.0616 19.9621C16.5005 19.9096 16.9211 19.8048 17.3485 19.6388C17.8077 19.4594 18.237 19.2158 18.6092 18.9245L18.6282 18.9414L19.5101 18.0779C20.1464 17.4402 20.1647 16.4214 19.5512 15.8059Z" fill="black"/>
</g>
<defs>
<clipPath id="clip0">
<rect width="20" height="20" fill="white"/>
</clipPath>
</defs>
</svg>
