<svg width="25" height="26" viewBox="0 0 25 26" fill="none" xmlns="http://www.w3.org/2000/svg">
<g clip-path="url(#clip0)">
<path d="M12.5 0.759369C5.5975 0.759369 0 6.32693 0 13.1925C0 20.0581 5.5975 25.6257 12.5 25.6257C19.4025 25.6257 25 20.0581 25 13.1925C25 6.32693 19.4025 0.759369 12.5 0.759369ZM18.2074 10.4534C18.2129 10.5758 18.2156 10.6987 18.2156 10.8222C18.2156 14.5932 15.3297 18.9416 10.0523 18.9418H10.0525H10.0523C8.43201 18.9418 6.92425 18.4694 5.65453 17.6599C5.87902 17.6863 6.10752 17.6994 6.33888 17.6994C7.68318 17.6994 8.92029 17.2433 9.90238 16.4778C8.64639 16.4547 7.58743 15.6296 7.22198 14.4957C7.39689 14.5291 7.57675 14.5473 7.76119 14.5473C8.02307 14.5473 8.27675 14.5122 8.51784 14.4467C7.20501 14.1853 6.21605 13.0313 6.21605 11.6494C6.21605 11.6365 6.21605 11.6249 6.21643 11.613C6.60305 11.8268 7.04517 11.9554 7.51591 11.9698C6.74553 11.4585 6.23913 10.5845 6.23913 9.59439C6.23913 9.07154 6.38123 8.58169 6.62766 8.15996C8.04253 9.88674 10.157 11.0224 12.5416 11.1417C12.4924 10.9326 12.467 10.7148 12.467 10.491C12.467 8.91559 13.752 7.63748 15.3364 7.63748C16.1617 7.63748 16.9071 7.98447 17.4307 8.5392C18.0843 8.41095 18.6981 8.17343 19.2526 7.84655C19.038 8.51264 18.5833 9.07154 17.9909 9.42498C18.5713 9.35592 19.1244 9.20282 19.6384 8.97554C19.2545 9.54791 18.7675 10.0507 18.2074 10.4534Z" fill="black"/>
</g>
<defs>
<clipPath id="clip0">
<rect width="25" height="24.8663" fill="white" transform="translate(0 0.759369)"/>
</clipPath>
</defs>
</svg>
